# xmcd
#
# Track frame offsets: 
#        150
#        13592
#        44225
#        58847
#        78160
#        93195
#        108242
#        121047
#        138440
#        151572
#        167927
#        187315
#        203675
#
# Disc length: 2889 seconds
#
# Revision: 0
# Processed by: cddbd v1.5.2PL0 Copyright (c) Steve Scherf et al.
# Submitted via: ExactAudioCopy v0.99pb5
#
DISCID=a70b470d
DTITLE=Good Earth - Good Earth
DYEAR=1996
DGENRE=Bluegrass
TTITLE0=Featherline
TTITLE1=Going Home/Rollin' By
TTITLE2=Somewhere In The Middle
TTITLE3=Lay High
TTITLE4=How Long?
TTITLE5=Wandering Nighttime Song
TTITLE6=Chocolate Milk
TTITLE7=Rae
TTITLE8=Sadie's Song
TTITLE9=For The Song
TTITLE10=Little Bit Of Me
TTITLE11=Highway Blues
TTITLE12=Sandlewood Girl
EXTD=Jon Neufeld: Guitar, banjo, harmony vocals\nDarrin Craig: Voice, 
EXTD=guitar, harmonica\nChuck Neufeld: Harmony vocals on 8 and 13
EXTT0=
EXTT1=
EXTT2=
EXTT3=
EXTT4=
EXTT5=
EXTT6=
EXTT7=
EXTT8=
EXTT9=
EXTT10=
EXTT11=
EXTT12=
PLAYORDER=
